{
	"asset":{
		"generator":"Khronos glTF Blender I/O v3.6.28",
		"version":"2.0"
	},
	"scene":0,
	"scenes":[
		{
			"name":"Scene",
			"nodes":[
				1
			]
		}
	],
	"nodes":[
		{
			"mesh":0,
			"name":"Text.003",
			"scale":[
				0.3257819712162018,
				7.999999523162842,
				1
			],
			"translation":[
				-0.014079093933105469,
				0.8489676713943481,
				0.1035219132900238
			]
		},
		{
			"children":[
				0
			],
			"mesh":1,
			"name":"repeatButton",
			"rotation":[
				0.7071068286895752,
				0,
				0,
				0.7071068286895752
			],
			"scale":[
				3.0695371627807617,
				0.125,
				1
			],
			"translation":[
				36.59822463989258,
				-0.10612096637487411,
				-0.23070979118347168
			]
		}
	],
	"materials":[
		{
			"doubleSided":true,
			"name":"Brown",
			"pbrMetallicRoughness":{
				"baseColorFactor":[
					0.1119324266910553,
					0.021218974143266678,
					0.017641959711909294,
					1
				],
				"metallicFactor":0,
				"roughnessFactor":0.5
			}
		},
		{
			"doubleSided":true,
			"name":"Beige",
			"pbrMetallicRoughness":{
				"baseColorFactor":[
					0.9646856188774109,
					0.8227852582931519,
					0.45641112327575684,
					1
				],
				"metallicFactor":0,
				"roughnessFactor":0.5
			}
		}
	],
	"meshes":[
		{
			"name":"Text.007",
			"primitives":[
				{
					"attributes":{
						"POSITION":0,
						"NORMAL":1,
						"TEXCOORD_0":2
					},
					"indices":3,
					"material":0
				}
			]
		},
		{
			"name":"Cube.014",
			"primitives":[
				{
					"attributes":{
						"POSITION":4,
						"NORMAL":5,
						"TEXCOORD_0":6
					},
					"indices":7,
					"material":1
				}
			]
		}
	],
	"accessors":[
		{
			"bufferView":0,
			"componentType":5126,
			"count":4493,
			"max":[
				1.260501742362976,
				0.05000000074505806,
				0.2823804020881653
			],
			"min":[
				-1.2605018615722656,
				-0.05000000074505806,
				-0.2823804020881653
			],
			"type":"VEC3"
		},
		{
			"bufferView":1,
			"componentType":5126,
			"count":4493,
			"type":"VEC3"
		},
		{
			"bufferView":2,
			"componentType":5126,
			"count":4493,
			"type":"VEC2"
		},
		{
			"bufferView":3,
			"componentType":5123,
			"count":13356,
			"type":"SCALAR"
		},
		{
			"bufferView":4,
			"componentType":5126,
			"count":24,
			"max":[
				0.5,
				0.5,
				0.5
			],
			"min":[
				-0.5,
				-0.5,
				-0.5
			],
			"type":"VEC3"
		},
		{
			"bufferView":5,
			"componentType":5126,
			"count":24,
			"type":"VEC3"
		},
		{
			"bufferView":6,
			"componentType":5126,
			"count":24,
			"type":"VEC2"
		},
		{
			"bufferView":7,
			"componentType":5123,
			"count":36,
			"type":"SCALAR"
		}
	],
	"bufferViews":[
		{
			"buffer":0,
			"byteLength":53916,
			"byteOffset":0,
			"target":34962
		},
		{
			"buffer":0,
			"byteLength":53916,
			"byteOffset":53916,
			"target":34962
		},
		{
			"buffer":0,
			"byteLength":35944,
			"byteOffset":107832,
			"target":34962
		},
		{
			"buffer":0,
			"byteLength":26712,
			"byteOffset":143776,
			"target":34963
		},
		{
			"buffer":0,
			"byteLength":288,
			"byteOffset":170488,
			"target":34962
		},
		{
			"buffer":0,
			"byteLength":288,
			"byteOffset":170776,
			"target":34962
		},
		{
			"buffer":0,
			"byteLength":192,
			"byteOffset":171064,
			"target":34962
		},
		{
			"buffer":0,
			"byteLength":72,
			"byteOffset":171256,
			"target":34963
		}
	],
	"buffers":[
		{
			"byteLength":171328,
			"uri":"data:application/octet-stream;base64,"
		}
	]
}
