{
	"asset":{
		"generator":"Khronos glTF Blender I/O v3.6.28",
		"version":"2.0"
	},
	"scene":0,
	"scenes":[
		{
			"name":"Scene",
			"nodes":[
				0,
				1,
				2,
				3,
				4
			]
		}
	],
	"nodes":[
		{
			"mesh":0,
			"name":"Copy",
			"scale":[
				22.14447021484375,
				22.14447021484375,
				22.14447021484375
			],
			"translation":[
				-2.399838924407959,
				-0.2658970057964325,
				-3.635270833969116
			]
		},
		{
			"mesh":1,
			"name":"Curve.036",
			"scale":[
				22.14447021484375,
				22.14447021484375,
				22.14447021484375
			],
			"translation":[
				0.18536138534545898,
				-0.2658970057964325,
				-0.029493212699890137
			]
		},
		{
			"mesh":2,
			"name":"Curve.037",
			"scale":[
				22.14447021484375,
				22.14447021484375,
				22.14447021484375
			],
			"translation":[
				3.969440460205078,
				0.15887005627155304,
				-1.4763859510421753
			]
		},
		{
			"mesh":3,
			"name":"Curve.038",
			"scale":[
				22.14447021484375,
				22.14447021484375,
				22.14447021484375
			],
			"translation":[
				2.3653297424316406,
				0.028838150203227997,
				-2.0995988845825195
			]
		},
		{
			"mesh":4,
			"name":"Curve.039",
			"scale":[
				22.14447021484375,
				22.14447021484375,
				22.14447021484375
			],
			"translation":[
				-1.1837701797485352,
				0.4069620370864868,
				0.6659654378890991
			]
		}
	],
	"materials":[
		{
			"doubleSided":true,
			"name":"Material.004",
			"pbrMetallicRoughness":{
				"baseColorFactor":[
					0,
					0,
					0,
					1
				],
				"metallicFactor":0,
				"roughnessFactor":0.5
			}
		},
		{
			"doubleSided":true,
			"name":"Material.002",
			"pbrMetallicRoughness":{
				"baseColorFactor":[
					0,
					0.29943418502807617,
					0.0134107181802392,
					1
				],
				"metallicFactor":0,
				"roughnessFactor":0.5
			}
		},
		{
			"doubleSided":true,
			"name":"Material.003",
			"pbrMetallicRoughness":{
				"baseColorFactor":[
					0.001824200851842761,
					0.11709543317556381,
					0.005522049032151699,
					1
				],
				"metallicFactor":0,
				"roughnessFactor":0.5
			}
		},
		{
			"doubleSided":true,
			"name":"Material.001",
			"pbrMetallicRoughness":{
				"baseColorFactor":[
					0.006342991255223751,
					0.8000000715255737,
					0.07013247907161713,
					1
				],
				"metallicFactor":0,
				"roughnessFactor":0.5
			}
		}
	],
	"meshes":[
		{
			"name":"Curve.035",
			"primitives":[
				{
					"attributes":{
						"POSITION":0,
						"NORMAL":1,
						"TEXCOORD_0":2
					},
					"indices":3,
					"material":0
				}
			]
		},
		{
			"name":"Curve.036",
			"primitives":[
				{
					"attributes":{
						"POSITION":4,
						"NORMAL":5,
						"TEXCOORD_0":6
					},
					"indices":7,
					"material":1
				}
			]
		},
		{
			"name":"Curve.037",
			"primitives":[
				{
					"attributes":{
						"POSITION":8,
						"NORMAL":9,
						"TEXCOORD_0":10
					},
					"indices":11,
					"material":2
				}
			]
		},
		{
			"name":"Curve.038",
			"primitives":[
				{
					"attributes":{
						"POSITION":12,
						"NORMAL":13,
						"TEXCOORD_0":14
					},
					"indices":15,
					"material":2
				}
			]
		},
		{
			"name":"Curve.039",
			"primitives":[
				{
					"attributes":{
						"POSITION":16,
						"NORMAL":17,
						"TEXCOORD_0":18
					},
					"indices":19,
					"material":3
				}
			]
		}
	],
	"accessors":[
		{
			"bufferView":0,
			"componentType":5126,
			"count":5501,
			"max":[
				0.10041725635528564,
				0,
				0.03329487144947052
			],
			"min":[
				-0.10121206939220428,
				0,
				-0.039312705397605896
			],
			"type":"VEC3"
		},
		{
			"bufferView":1,
			"componentType":5126,
			"count":5501,
			"type":"VEC3"
		},
		{
			"bufferView":2,
			"componentType":5126,
			"count":5501,
			"type":"VEC2"
		},
		{
			"bufferView":3,
			"componentType":5123,
			"count":16203,
			"type":"SCALAR"
		},
		{
			"bufferView":4,
			"componentType":5126,
			"count":39,
			"max":[
				0.24352607131004333,
				0,
				0.08771048486232758
			],
			"min":[
				-0.24352607131004333,
				0,
				-0.10460983216762543
			],
			"type":"VEC3"
		},
		{
			"bufferView":5,
			"componentType":5126,
			"count":39,
			"type":"VEC3"
		},
		{
			"bufferView":6,
			"componentType":5126,
			"count":39,
			"type":"VEC2"
		},
		{
			"bufferView":7,
			"componentType":5123,
			"count":102,
			"type":"SCALAR"
		},
		{
			"bufferView":8,
			"componentType":5126,
			"count":63,
			"max":[
				0.04818165302276611,
				0,
				0.04807259142398834
			],
			"min":[
				-0.07183431088924408,
				0,
				-0.062443267554044724
			],
			"type":"VEC3"
		},
		{
			"bufferView":9,
			"componentType":5126,
			"count":63,
			"type":"VEC3"
		},
		{
			"bufferView":10,
			"componentType":5126,
			"count":63,
			"type":"VEC2"
		},
		{
			"bufferView":11,
			"componentType":5123,
			"count":174,
			"type":"SCALAR"
		},
		{
			"bufferView":12,
			"componentType":5126,
			"count":60,
			"max":[
				0.024340633302927017,
				0,
				0.024234769865870476
			],
			"min":[
				-0.03692391514778137,
				0,
				-0.03037787787616253
			],
			"type":"VEC3"
		},
		{
			"bufferView":13,
			"componentType":5126,
			"count":60,
			"type":"VEC3"
		},
		{
			"bufferView":14,
			"componentType":5126,
			"count":60,
			"type":"VEC2"
		},
		{
			"bufferView":15,
			"componentType":5123,
			"count":174,
			"type":"SCALAR"
		},
		{
			"bufferView":16,
			"componentType":5126,
			"count":135,
			"max":[
				0.3053533434867859,
				0,
				0.05630776286125183
			],
			"min":[
				-0.1817016303539276,
				0,
				-0.09990999102592468
			],
			"type":"VEC3"
		},
		{
			"bufferView":17,
			"componentType":5126,
			"count":135,
			"type":"VEC3"
		},
		{
			"bufferView":18,
			"componentType":5126,
			"count":135,
			"type":"VEC2"
		},
		{
			"bufferView":19,
			"componentType":5123,
			"count":390,
			"type":"SCALAR"
		}
	],
	"bufferViews":[
		{
			"buffer":0,
			"byteLength":66012,
			"byteOffset":0,
			"target":34962
		},
		{
			"buffer":0,
			"byteLength":66012,
			"byteOffset":66012,
			"target":34962
		},
		{
			"buffer":0,
			"byteLength":44008,
			"byteOffset":132024,
			"target":34962
		},
		{
			"buffer":0,
			"byteLength":32406,
			"byteOffset":176032,
			"target":34963
		},
		{
			"buffer":0,
			"byteLength":468,
			"byteOffset":208440,
			"target":34962
		},
		{
			"buffer":0,
			"byteLength":468,
			"byteOffset":208908,
			"target":34962
		},
		{
			"buffer":0,
			"byteLength":312,
			"byteOffset":209376,
			"target":34962
		},
		{
			"buffer":0,
			"byteLength":204,
			"byteOffset":209688,
			"target":34963
		},
		{
			"buffer":0,
			"byteLength":756,
			"byteOffset":209892,
			"target":34962
		},
		{
			"buffer":0,
			"byteLength":756,
			"byteOffset":210648,
			"target":34962
		},
		{
			"buffer":0,
			"byteLength":504,
			"byteOffset":211404,
			"target":34962
		},
		{
			"buffer":0,
			"byteLength":348,
			"byteOffset":211908,
			"target":34963
		},
		{
			"buffer":0,
			"byteLength":720,
			"byteOffset":212256,
			"target":34962
		},
		{
			"buffer":0,
			"byteLength":720,
			"byteOffset":212976,
			"target":34962
		},
		{
			"buffer":0,
			"byteLength":480,
			"byteOffset":213696,
			"target":34962
		},
		{
			"buffer":0,
			"byteLength":348,
			"byteOffset":214176,
			"target":34963
		},
		{
			"buffer":0,
			"byteLength":1620,
			"byteOffset":214524,
			"target":34962
		},
		{
			"buffer":0,
			"byteLength":1620,
			"byteOffset":216144,
			"target":34962
		},
		{
			"buffer":0,
			"byteLength":1080,
			"byteOffset":217764,
			"target":34962
		},
		{
			"buffer":0,
			"byteLength":780,
			"byteOffset":218844,
			"target":34963
		}
	],
	"buffers":[
		{
			"byteLength":219624,
			"uri":"data:application/octet-stream;base64,"
		}
	]
}
